<svg xmlns="http://www.w3.org/2000/svg" xmlns:xlink="http://www.w3.org/1999/xlink" version="1.1" viewBox="0.04 0 79.93 62">
<g id="surface1">
<path style=" stroke:none;fill-rule:nonzero;fill:rgb(34.509804%,39.607843%,94.901961%);fill-opacity:1;" d="M 67.742188 5.191406 C 62.570312 2.765625 57.039062 1.003906 51.253906 0 C 50.542969 1.285156 49.714844 3.019531 49.140625 4.394531 C 42.992188 3.46875 36.902344 3.46875 30.863281 4.394531 C 30.292969 3.019531 29.445312 1.285156 28.726562 0 C 22.9375 1.003906 17.398438 2.773438 12.222656 5.207031 C 1.789062 21.007812 -1.039062 36.417969 0.375 51.609375 C 7.296875 56.789062 14.003906 59.933594 20.597656 61.992188 C 22.226562 59.746094 23.679688 57.359375 24.929688 54.84375 C 22.546875 53.9375 20.265625 52.816406 18.109375 51.519531 C 18.679688 51.09375 19.242188 50.648438 19.78125 50.191406 C 32.933594 56.355469 47.222656 56.355469 60.21875 50.191406 C 60.765625 50.648438 61.324219 51.09375 61.890625 51.519531 C 59.726562 52.824219 57.441406 53.945312 55.058594 54.851562 C 56.308594 57.359375 57.753906 59.753906 59.386719 62 C 65.988281 59.941406 72.703125 56.792969 79.625 51.609375 C 81.285156 34 76.789062 18.730469 67.742188 5.191406 Z M 26.722656 42.265625 C 22.773438 42.265625 19.535156 38.574219 19.535156 34.074219 C 19.535156 29.578125 22.703125 25.878906 26.722656 25.878906 C 30.738281 25.878906 33.976562 29.570312 33.90625 34.074219 C 33.914062 38.574219 30.738281 42.265625 26.722656 42.265625 Z M 53.277344 42.265625 C 49.328125 42.265625 46.09375 38.574219 46.09375 34.074219 C 46.09375 29.578125 49.261719 25.878906 53.277344 25.878906 C 57.296875 25.878906 60.53125 29.570312 60.464844 34.074219 C 60.464844 38.574219 57.296875 42.265625 53.277344 42.265625 Z M 53.277344 42.265625 "/>
</g>
</svg>