<?xml version="1.0" standalone="no"?>
<!DOCTYPE svg PUBLIC "-//W3C//DTD SVG 20010904//EN"
 "http://www.w3.org/TR/2001/REC-SVG-20010904/DTD/svg10.dtd">
<svg version="1.0" xmlns="http://www.w3.org/2000/svg"
 width="960.000000pt" height="960.000000pt" viewBox="0 0 960.000000 960.000000"
 preserveAspectRatio="xMidYMid meet">
<metadata>
Created by potrace 1.14, written by Peter Selinger 2001-2017
</metadata>
<g transform="translate(0.000000,960.000000) scale(0.100000,-0.100000)"
fill="#000000" stroke="none">
<path d="M1412 9493 c-1 -21 -4 -49 -6 -63 -3 -14 -8 -50 -11 -80 -3 -30 -11
-91 -16 -135 -6 -44 -12 -96 -14 -115 -2 -19 -6 -64 -10 -100 -4 -36 -8 -74
-10 -85 -2 -18 -8 -20 -76 -17 -115 5 -129 7 -129 12 0 3 -19 5 -42 5 -24 0
-67 4 -96 7 -32 5 -63 3 -80 -4 -15 -6 -29 -12 -32 -13 -3 0 -15 -6 -26 -13
-12 -6 -24 -8 -28 -5 -3 3 -6 2 -6 -3 0 -6 -17 -16 -37 -23 -21 -8 -71 -29
-112 -48 l-74 -35 167 -167 c91 -91 166 -170 166 -175 0 -13 -82 1 -91 16 -5
7 -9 22 -9 34 0 24 -29 54 -52 54 -9 0 -21 7 -28 15 -7 9 -15 13 -18 11 -2 -3
-23 5 -46 18 -60 33 -81 36 -95 15 -9 -15 -8 -27 3 -54 9 -20 15 -38 15 -40 1
-3 12 -26 25 -53 27 -54 59 -86 99 -101 16 -6 27 -18 27 -29 0 -10 5 -23 11
-29 6 -6 7 -13 2 -16 -5 -3 -45 30 -88 74 -44 43 -83 79 -86 79 -4 0 -34 27
-66 60 -49 51 -111 97 -118 88 -1 -2 -19 -55 -40 -118 -21 -63 -41 -119 -45
-125 -12 -17 -37 -99 -35 -115 4 -23 16 -204 21 -305 2 -49 8 -103 13 -120 4
-16 7 -40 6 -52 -1 -13 2 -23 7 -23 5 0 7 -4 4 -8 -3 -5 -1 -24 4 -43 5 -19
11 -52 15 -74 3 -22 8 -56 12 -75 4 -19 7 -38 8 -42 1 -27 55 -3 55 25 0 5 10
20 23 31 12 12 27 31 33 42 11 18 14 17 52 -20 37 -35 52 -76 28 -76 -5 0 -7
-3 -4 -6 5 -4 -10 -52 -37 -117 -7 -16 -5 -17 11 -9 20 11 53 22 57 20 1 -1
13 5 27 12 14 8 28 13 33 12 4 -1 7 2 7 7 0 12 27 8 42 -7 8 -8 6 -23 -8 -59
-29 -76 -30 -97 -2 -70 21 20 119 58 132 50 6 -4 23 -6 38 -4 16 1 28 -1 28
-6 0 -4 35 -9 78 -10 42 -1 106 -4 142 -7 70 -7 137 -12 186 -14 17 -1 41 -11
54 -22 19 -17 23 -30 24 -95 2 -69 4 -76 32 -100 16 -14 25 -25 20 -25 -6 0 3
-13 19 -30 16 -16 35 -30 42 -30 7 0 13 -5 13 -11 0 -5 4 -8 9 -5 4 3 16 -3
26 -14 10 -11 22 -17 26 -14 5 3 9 0 9 -6 0 -6 10 -15 23 -20 12 -6 57 -35
100 -65 43 -30 82 -55 86 -55 17 0 41 -68 36 -102 -3 -18 -7 -49 -9 -68 -3
-19 -7 -55 -11 -80 -6 -45 -5 -46 54 -104 36 -36 71 -61 87 -63 14 -2 37 -16
50 -30 13 -14 24 -22 24 -17 0 4 5 3 12 -4 17 -17 25 -15 32 11 9 39 20 140
18 182 l-2 40 31 -32 c27 -26 32 -40 35 -85 4 -80 12 -147 20 -171 4 -12 8
-33 9 -47 0 -14 3 -29 6 -35 7 -15 3 -134 -6 -179 -4 -21 -16 -62 -26 -90 -17
-44 -17 -51 -4 -59 8 -4 15 -14 15 -20 0 -7 24 -37 54 -66 43 -43 58 -52 76
-46 15 5 27 1 41 -14 15 -16 23 -18 37 -10 25 16 50 53 56 80 2 13 8 35 13 49
4 14 8 46 7 73 0 52 8 57 46 27 14 -11 33 -20 42 -20 20 0 31 -16 36 -49 2
-14 9 -36 17 -50 29 -56 70 -179 67 -198 -1 -6 2 -14 8 -18 5 -3 10 -16 10
-29 0 -12 5 -27 12 -34 7 -7 8 -12 4 -12 -5 0 -3 -6 3 -14 7 -8 14 -25 16 -37
3 -13 17 -58 31 -99 25 -68 36 -84 127 -177 55 -56 103 -101 106 -99 3 2 30 0
59 -3 28 -4 52 -5 52 -3 0 3 -9 13 -21 23 -11 9 -20 20 -19 23 1 13 -13 56
-19 56 -4 0 -8 11 -9 25 -1 19 2 23 16 18 9 -4 19 -9 22 -12 12 -14 101 -71
111 -71 5 0 14 -12 20 -27 6 -15 16 -41 23 -58 8 -16 20 -46 27 -65 7 -19 16
-37 20 -40 4 -3 9 -17 11 -32 2 -15 7 -30 11 -34 4 -4 7 -17 7 -30 0 -12 5
-24 10 -26 6 -2 12 -13 13 -26 0 -12 5 -22 9 -22 4 0 7 -3 6 -7 0 -5 7 -26 17
-48 9 -22 18 -46 19 -53 2 -8 7 -17 13 -20 6 -4 15 -20 18 -35 4 -15 11 -27
16 -27 5 0 8 -3 8 -7 -4 -22 10 -39 121 -151 66 -67 120 -126 120 -131 0 -11
75 -30 88 -22 14 8 22 44 26 120 l4 64 -69 68 c-39 38 -67 69 -65 69 8 0 -65
172 -86 202 -10 14 -18 30 -18 35 0 4 -11 29 -24 55 -24 47 -21 73 4 43 7 -8
21 -15 31 -15 11 0 19 -4 19 -9 0 -5 8 -11 18 -15 46 -15 97 -65 107 -105 4
-14 13 -33 21 -42 8 -9 17 -27 19 -39 2 -13 14 -33 25 -45 11 -12 22 -31 24
-42 3 -11 14 -39 25 -61 12 -23 21 -48 21 -55 0 -8 7 -20 15 -27 15 -12 75
-131 81 -158 1 -7 14 -29 29 -48 15 -19 25 -38 22 -41 -3 -3 5 -23 19 -44 13
-21 24 -47 24 -56 0 -10 13 -37 28 -59 45 -69 66 -108 68 -126 1 -10 7 -24 14
-33 7 -8 9 -15 5 -15 -3 0 3 -12 14 -26 12 -15 21 -32 21 -39 0 -7 9 -24 20
-37 10 -14 17 -28 14 -30 -7 -8 36 -89 50 -94 6 -2 12 -16 12 -29 2 -26 34
-63 252 -292 291 -305 384 -396 391 -385 3 6 6 76 6 156 l0 145 -104 108 c-58
59 -162 168 -233 241 -71 72 -125 132 -121 132 4 0 1 6 -7 13 -9 7 -22 26 -31
42 -8 17 -29 58 -47 92 -18 35 -31 64 -30 66 2 1 -7 15 -19 31 -13 16 -23 33
-23 38 0 5 -25 59 -55 121 -30 61 -55 117 -55 124 0 6 -7 19 -16 27 -8 9 -12
16 -8 16 4 0 -1 9 -10 19 -10 11 -18 26 -20 34 -1 8 -9 25 -17 38 -9 13 -16
26 -16 29 1 3 -11 26 -26 51 -15 25 -27 53 -27 61 0 9 -7 19 -16 22 -9 4 -14
9 -10 13 3 4 -4 17 -16 30 -30 33 -15 41 17 9 15 -15 45 -38 66 -52 51 -32
140 -123 164 -168 11 -20 23 -36 27 -36 5 0 7 -3 6 -7 -2 -5 7 -21 20 -38 12
-16 21 -32 21 -35 -3 -8 42 -93 58 -112 8 -9 12 -21 9 -26 -3 -5 9 -25 25 -45
17 -21 35 -54 41 -75 8 -27 44 -72 137 -167 69 -72 142 -149 162 -172 20 -22
46 -46 58 -52 19 -10 22 -9 32 16 9 25 9 47 -4 134 -3 15 -8 32 -12 39 -5 8
-1 11 11 8 22 -4 41 -40 50 -94 3 -21 8 -42 10 -45 4 -8 17 -79 16 -94 -1 -30
-14 -130 -17 -135 -2 -4 -7 -29 -10 -56 -4 -27 -8 -53 -9 -59 0 -5 4 -9 11 -8
6 1 26 5 44 8 18 3 37 9 42 12 6 3 20 7 31 9 12 2 54 12 95 23 40 11 78 18 85
16 14 -5 86 -16 106 -16 8 0 38 -4 65 -9 28 -5 76 -12 107 -15 52 -5 168 -45
194 -66 6 -5 14 -6 17 -2 4 3 7 2 7 -4 0 -5 7 -10 15 -10 8 0 34 -9 57 -20 54
-26 81 -37 91 -35 4 1 7 -3 7 -10 0 -6 3 -9 6 -6 3 4 22 0 42 -9 32 -12 18 4
-88 111 -69 69 -119 126 -112 126 6 0 12 -4 12 -10 0 -5 6 -10 14 -10 7 0 19
-6 25 -14 7 -8 27 -22 46 -31 19 -9 35 -20 35 -26 0 -6 4 -8 8 -5 12 7 62 -42
62 -59 0 -8 5 -15 10 -15 6 0 9 -3 8 -7 -1 -5 7 -27 19 -50 19 -39 19 -44 5
-65 -9 -13 -21 -26 -26 -30 -7 -5 -7 -8 -1 -8 6 0 3 -6 -5 -13 -18 -15 -38
-45 -46 -69 -4 -10 -10 -18 -14 -18 -4 0 -12 -11 -18 -24 -9 -20 -7 -27 19
-52 l29 -28 17 24 c10 14 31 40 48 58 28 31 35 34 101 37 61 3 73 0 85 -16 7
-10 18 -19 23 -19 5 0 45 -35 88 -77 43 -43 80 -77 83 -76 2 1 42 -35 89 -80
47 -45 103 -98 125 -117 22 -19 40 -41 41 -47 0 -7 4 -13 8 -13 5 0 9 -6 9
-12 0 -16 53 -149 65 -164 4 -6 18 -9 31 -7 28 5 87 -31 87 -54 -1 -60 -42
-93 -92 -74 -31 12 -43 28 -44 61 -2 47 -4 50 -21 43 -10 -4 -20 -9 -23 -12
-3 -3 -14 -12 -25 -18 -108 -67 -102 -65 -142 -54 -21 6 -51 12 -68 15 -16 3
-45 10 -63 15 -18 5 -33 9 -35 9 -5 -2 -52 15 -57 21 -6 7 -41 27 -82 49 -16
7 -28 18 -28 23 0 6 -4 8 -9 5 -5 -3 -14 0 -20 8 -18 22 -95 177 -111 226 -9
25 -21 44 -28 42 -7 -1 -12 2 -12 8 0 5 -6 10 -13 10 -7 0 -30 20 -52 44 -57
63 -67 76 -58 76 4 0 2 5 -5 12 -18 18 -15 66 10 134 12 33 19 67 16 76 -4 9
-54 31 -125 53 -65 21 -143 46 -173 56 -30 9 -82 24 -115 33 -33 8 -82 20
-110 28 -27 7 -54 11 -59 10 -4 -2 -14 3 -22 9 -8 6 -14 9 -14 6 0 -3 -28 1
-61 9 -34 8 -64 13 -66 11 -2 -2 18 -23 44 -46 97 -84 168 -147 223 -198 60
-56 74 -62 84 -37 3 8 10 13 15 9 5 -3 12 -1 16 5 3 5 18 10 33 10 32 0 75
-27 67 -41 -4 -5 -1 -9 6 -9 8 0 10 -13 6 -39 -6 -45 -45 -91 -76 -91 -24 0
-71 20 -71 31 0 4 -9 11 -20 14 -14 4 -32 -3 -59 -24 -21 -17 -42 -31 -46 -31
-5 0 -28 -16 -51 -36 -24 -19 -44 -32 -44 -27 0 4 -4 3 -8 -3 -4 -5 -29 -26
-57 -45 -27 -18 -52 -36 -55 -39 -3 -3 -12 -9 -22 -15 -47 -28 -107 -71 -108
-75 0 -3 21 -6 48 -6 106 -3 202 -9 202 -14 0 -3 21 -5 48 -6 40 -1 85 -4 224
-19 19 -2 35 7 59 31 36 37 59 43 79 19 7 -8 18 -15 26 -15 17 0 36 -54 35
-99 -1 -22 -33 -55 -56 -57 -5 0 -25 6 -44 13 -19 7 -36 11 -38 9 -5 -4 -52
-133 -57 -156 -2 -8 -13 -41 -24 -72 -11 -32 -18 -58 -16 -58 2 0 -2 -13 -10
-29 -9 -16 -12 -31 -9 -35 4 -3 2 -6 -4 -6 -5 0 -10 -7 -10 -15 0 -8 4 -15 9
-15 4 0 8 5 8 10 0 6 8 13 18 17 15 5 122 102 242 219 32 31 41 34 96 34 56 0
62 -2 75 -28 7 -15 22 -38 31 -52 15 -21 27 -95 31 -187 0 -12 29 -9 72 7 14
5 25 8 25 6 0 -2 19 2 43 9 23 7 60 11 82 9 56 -4 313 -6 353 -2 17 2 32 7 32
11 0 5 4 6 8 3 5 -3 24 -1 43 4 33 9 124 23 144 22 50 -3 75 -19 75 -49 0 -21
-35 -46 -67 -50 -21 -2 -55 29 -66 60 -8 22 -42 -26 -45 -62 -1 -19 -4 -37 -6
-39 -8 -7 17 -67 34 -82 47 -43 115 -73 143 -64 12 4 28 9 35 10 25 5 82 49
88 69 4 11 11 23 17 27 6 3 12 14 13 23 6 40 21 44 89 19 36 -13 65 -21 65
-18 0 2 8 0 18 -5 9 -5 33 -12 53 -15 54 -8 90 -24 88 -38 -3 -28 3 -39 42
-79 22 -23 42 -51 44 -62 6 -27 6 -27 48 -7 20 10 37 14 37 10 0 -5 12 -10 28
-12 21 -2 27 -8 25 -25 -2 -13 2 -23 7 -23 6 0 9 -3 8 -7 -1 -5 4 -19 12 -33
7 -14 13 -26 12 -28 -6 -7 11 -52 19 -52 5 0 9 -9 9 -21 0 -11 10 -29 22 -39
22 -17 23 -17 55 16 18 19 37 34 42 34 17 0 23 20 10 36 -10 13 -14 13 -30 -2
-19 -17 -43 -10 -35 11 3 8 -2 19 -10 25 -15 14 -19 40 -5 40 4 0 20 -11 36
-26 15 -14 29 -23 31 -21 2 2 -10 16 -27 31 -24 22 -28 30 -18 37 8 4 18 4 23
-1 6 -6 17 -10 26 -10 30 0 42 -22 23 -42 -15 -16 -15 -20 -2 -33 13 -13 21
-9 63 34 47 48 48 49 29 71 -10 12 -29 27 -43 33 -14 5 -27 11 -30 13 -18 7
-46 15 -54 14 -5 -1 -12 3 -16 10 -4 6 -22 14 -41 17 -46 7 -56 17 -51 53 2
17 -1 37 -8 45 -7 9 -10 18 -7 22 4 3 -14 29 -40 56 -37 40 -54 51 -80 51 -18
1 -32 3 -31 6 1 3 -4 15 -11 28 -12 22 -16 35 -27 92 -3 14 -14 54 -25 89 -10
35 -19 67 -19 72 0 4 17 13 38 19 40 11 87 49 115 92 18 29 24 118 7 118 -5 0
-10 6 -10 13 0 7 -19 32 -43 55 -44 43 -56 46 -138 39 -34 -3 -79 -47 -48 -47
6 0 17 -6 25 -14 7 -8 19 -16 25 -18 26 -9 10 -77 -18 -79 -4 -1 -15 -5 -24
-10 -10 -5 -23 -3 -34 5 -19 13 -23 77 -10 136 39 175 43 221 36 445 -2 66 -1
131 3 145 4 14 8 31 8 38 1 6 4 12 7 12 4 0 8 10 9 23 1 12 3 31 5 42 2 17 -4
20 -48 22 -94 3 -131 10 -160 29 -17 10 -32 21 -35 24 -3 4 -12 9 -20 12 -11
4 -16 23 -18 67 l-2 62 105 106 c58 58 105 108 105 112 0 3 21 27 46 54 26 26
43 47 39 47 -4 0 -50 -16 -103 -36 -53 -20 -103 -38 -112 -40 -8 -1 -53 -16
-100 -31 -76 -25 -85 -31 -86 -53 0 -14 4 -30 9 -37 5 -7 6 -25 3 -41 -10 -41
-63 -59 -107 -36 -62 32 -98 87 -64 100 8 3 15 12 15 20 0 7 9 18 20 24 19 10
20 18 15 93 -9 134 -13 175 -20 235 -6 57 -14 140 -18 199 -2 39 -14 52 -23
27 -4 -10 -21 -37 -38 -59 -17 -21 -31 -43 -31 -48 0 -5 -7 -14 -16 -20 -9 -7
-16 -14 -16 -17 0 -3 -12 -23 -27 -45 -177 -255 -180 -261 -135 -286 22 -11
24 -30 8 -74 -13 -35 -49 -56 -82 -49 -12 3 -29 6 -37 6 -8 1 -20 6 -25 12
-15 15 -11 106 4 115 23 15 6 46 -66 118 -40 40 -73 76 -73 81 0 4 -34 41 -76
82 -59 58 -75 69 -70 50 4 -14 9 -36 12 -50 3 -14 8 -34 11 -45 4 -11 8 -25 9
-30 1 -6 12 -46 24 -90 12 -44 23 -89 25 -100 1 -11 8 -33 15 -50 6 -16 13
-37 15 -45 2 -8 10 -35 19 -60 8 -25 17 -57 20 -72 2 -14 9 -36 16 -47 6 -12
8 -21 4 -21 -3 0 -2 -6 3 -12 10 -12 22 -54 22 -71 0 -5 8 -15 18 -22 15 -11
23 -10 48 3 21 12 56 17 115 17 l85 0 43 -42 c24 -24 39 -43 35 -43 -4 0 8
-16 27 -35 18 -19 37 -32 42 -29 4 3 8 0 8 -5 0 -6 3 -10 8 -9 10 3 56 -13 62
-21 3 -4 35 -19 73 -35 37 -16 78 -37 92 -48 25 -20 101 -138 97 -150 -1 -5 2
-8 7 -8 7 0 16 -22 26 -60 1 -5 32 -108 46 -154 7 -23 5 -35 -8 -54 -10 -14
-22 -32 -28 -41 -5 -9 -19 -24 -29 -33 -10 -10 -15 -18 -11 -18 5 0 -2 -11
-15 -25 -27 -28 -26 -28 58 -25 44 2 44 2 45 -55 0 -37 -15 -63 -41 -73 -57
-22 -92 1 -97 63 -3 44 -13 52 -130 95 -54 19 -97 41 -100 50 -3 8 -63 72
-134 142 -71 70 -131 131 -132 137 -2 6 -39 46 -81 89 -47 49 -73 83 -68 88 5
5 11 36 14 69 4 55 8 63 42 92 20 18 43 33 51 33 20 0 16 15 -15 47 -23 25
-31 28 -50 20 -12 -6 -22 -14 -22 -19 0 -4 -5 -8 -10 -8 -12 0 -71 -40 -82
-55 -4 -5 -11 -10 -15 -10 -4 0 -20 -9 -35 -19 -25 -16 -30 -17 -50 -4 -13 9
-27 16 -33 18 -5 1 -22 11 -37 21 -14 10 -31 19 -37 19 -6 0 -11 5 -11 11 0 5
-4 8 -9 4 -5 -3 -19 7 -30 22 -11 16 -25 33 -29 38 -5 6 -11 15 -13 20 -12 28
-73 115 -80 115 -5 0 -9 6 -9 12 0 7 44 -31 98 -85 53 -53 102 -97 107 -97 5
0 27 -19 47 -41 21 -23 40 -40 42 -38 2 2 -3 20 -13 39 -9 19 -18 37 -18 40
-3 9 -35 84 -53 125 -41 94 -59 136 -58 138 1 1 -5 13 -12 27 -15 27 -17 35
-24 90 -3 19 -14 93 -24 164 -20 127 -20 173 0 209 5 10 7 21 4 24 -3 3 -1 13
4 23 5 9 12 32 15 49 3 18 12 50 19 72 8 21 10 42 6 44 -5 3 -62 -4 -127 -16
-149 -27 -184 -26 -273 3 -19 6 -43 11 -55 12 -11 1 -20 8 -20 16 0 11 12 15
50 15 28 1 55 -2 60 -4 25 -13 55 -7 61 11 4 15 -7 31 -46 66 -29 26 -111 101
-184 167 -127 117 -179 155 -192 142 -4 -3 -25 9 -47 28 -22 19 -49 36 -59 36
-33 3 -36 4 -55 25 -10 11 -31 24 -47 28 -16 4 -44 19 -62 33 -19 14 -34 21
-34 17 0 -5 -4 -4 -8 2 -4 5 -25 21 -47 34 -40 25 -139 119 -162 156 -7 10
-22 37 -34 59 -17 30 -18 37 -5 26 9 -7 16 -10 16 -7 0 4 10 0 22 -8 12 -9 29
-16 38 -16 8 0 26 -9 40 -20 14 -11 31 -20 38 -20 8 0 25 -9 39 -20 14 -11 29
-17 34 -14 5 3 9 1 9 -5 0 -6 7 -8 15 -5 7 3 29 -6 48 -20 19 -14 49 -31 68
-38 19 -6 37 -15 40 -20 3 -4 17 -9 32 -10 15 -1 27 -6 27 -9 0 -4 14 -10 30
-14 17 -4 30 -11 30 -16 0 -5 9 -9 19 -9 11 0 23 -4 26 -10 3 -5 23 -17 43
-26 20 -9 58 -27 85 -41 26 -13 47 -21 47 -17 0 4 8 1 18 -7 9 -8 42 -27 73
-43 33 -16 84 -56 124 -98 38 -38 89 -86 114 -106 25 -20 70 -63 102 -94 31
-32 60 -58 64 -58 5 0 37 -29 71 -64 68 -70 90 -79 184 -76 30 1 83 3 118 3
35 1 62 6 62 12 0 12 -182 195 -195 195 -5 0 -40 31 -79 69 -39 38 -114 109
-166 156 -52 48 -121 111 -153 141 -31 30 -63 54 -70 54 -7 0 -18 5 -25 12 -7
7 -12 9 -12 4 0 -4 -14 3 -32 15 -42 30 -100 60 -106 54 -3 -2 -16 5 -30 15
-13 11 -28 20 -33 20 -11 0 -110 44 -182 80 -32 17 -65 30 -73 30 -8 0 -14 5
-14 10 0 6 -10 10 -22 10 -11 0 -36 11 -53 25 -18 13 -35 21 -39 18 -3 -4 -6
-1 -6 5 0 7 -9 12 -19 12 -11 0 -23 5 -26 10 -4 6 -11 8 -16 5 -5 -4 -12 0
-15 8 -2 7 -10 14 -17 15 -33 3 -42 7 -209 94 -48 26 -89 44 -92 40 -3 -3 -6
0 -6 7 0 8 -7 11 -15 7 -8 -3 -21 2 -30 10 -8 9 -15 13 -15 9 0 -3 -10 1 -22
9 -12 9 -28 16 -36 16 -20 0 -99 70 -130 115 -15 22 -37 49 -48 60 -47 44 -37
85 12 50 12 -8 24 -12 27 -9 3 3 16 -1 29 -10 12 -8 28 -16 33 -17 32 -7 45
-12 45 -19 0 -4 12 -11 28 -15 15 -4 27 -6 27 -4 0 1 36 -17 80 -40 46 -25
103 -66 135 -97 l55 -55 55 6 c30 4 63 6 72 6 22 0 31 14 34 52 1 24 -9 39
-69 95 -39 37 -101 95 -137 130 -37 34 -70 62 -74 62 -4 0 -44 18 -88 40 -45
22 -88 40 -95 40 -7 0 -13 5 -13 12 0 6 -3 9 -6 6 -3 -4 -21 0 -40 8 -19 8
-39 12 -44 9 -4 -3 -10 -2 -12 3 -4 9 -105 52 -123 52 -6 0 -20 9 -30 20 -10
11 -26 19 -35 18 -9 -2 -23 2 -31 8 -8 6 -31 17 -51 23 -30 10 -42 22 -63 65
-14 30 -37 64 -50 76 -35 33 -21 42 29 20 24 -10 47 -15 51 -12 4 4 12 0 18
-9 7 -9 25 -19 40 -23 27 -6 27 -6 15 16 -7 13 -13 25 -13 28 -3 11 -30 65
-35 70 -3 3 -13 21 -22 40 -10 21 -29 41 -49 49 -18 8 -46 29 -64 46 -34 36
-91 69 -104 61 -5 -3 -16 3 -26 14 -9 10 -30 22 -46 25 -16 4 -31 11 -34 16
-4 5 -21 9 -40 9 -19 0 -37 5 -41 11 -3 6 -17 9 -30 6 -13 -2 -24 -1 -24 3 0
6 -7 8 -47 11 -10 1 -27 8 -38 15 -11 8 -25 14 -32 14 -6 0 -24 5 -40 12 -15
6 -34 10 -40 9 -7 -1 -13 2 -13 6 0 5 -11 10 -25 11 -29 2 -61 31 -87 79 -22
38 -22 47 -3 40 18 -8 107 18 160 46 22 12 43 20 47 19 4 -1 12 8 19 19 9 18
6 26 -23 56 -18 19 -32 42 -30 52 2 12 -17 35 -55 67 -32 27 -63 55 -69 63 -9
11 -23 9 -85 -14 -86 -32 -239 -46 -319 -31 -19 4 -56 8 -82 10 -26 1 -53 8
-61 15 -8 6 -19 11 -23 9 -17 -4 -52 13 -58 27 -3 8 -1 15 4 15 13 0 32 4 167
35 29 7 22 27 -29 82 -21 24 -38 48 -38 55 -1 23 -113 126 -140 128 -14 1 -27
1 -30 0 -27 -13 -199 -20 -206 -9 -3 5 -10 7 -15 4 -5 -4 -12 2 -16 12 -3 10
-21 37 -40 61 -19 23 -31 42 -27 42 3 0 -10 20 -30 44 -20 24 -36 47 -36 51 0
10 -27 35 -38 35 -5 0 -17 9 -27 20 -10 11 -14 20 -10 20 4 0 -2 9 -14 19 -12
11 -23 23 -24 28 -1 4 -7 8 -14 8 -6 0 -21 9 -33 20 -18 16 -33 19 -82 16 -59
-3 -61 -2 -99 38 -24 25 -42 54 -45 74 -14 92 -11 105 24 112 11 2 29 8 39 13
10 6 20 10 23 10 8 1 42 13 80 28 19 7 53 16 75 18 22 3 40 5 40 6 0 1 11 3
25 4 14 2 37 5 50 9 14 3 48 9 75 12 28 4 57 8 66 11 9 3 34 7 55 9 22 3 64
10 94 16 30 6 71 13 90 15 19 2 50 7 69 11 33 8 32 8 -50 42 -46 19 -89 34
-96 34 -7 0 -13 3 -13 7 0 7 -101 45 -112 42 -5 -1 -8 2 -8 7 0 7 -23 17 -60
26 -3 0 -15 6 -27 13 -13 7 -23 10 -23 7 0 -4 -16 3 -35 15 -19 12 -35 19 -35
15 0 -3 -10 0 -22 7 -13 6 -27 13 -33 15 -5 1 -20 5 -32 8 -16 5 -23 2 -28
-14 -15 -49 -52 -58 -115 -28 -22 11 -25 19 -25 61 0 53 16 72 65 79 25 4 37
20 63 87 61 152 92 235 90 242 -2 4 2 8 9 8 6 0 8 3 5 7 -4 3 0 17 8 30 9 13
13 23 11 23 -3 0 6 25 19 55 14 30 24 56 24 58 -1 3 21 57 32 79 10 19 -4 19
-41 -2 -14 -8 -27 -14 -30 -15 -7 0 -173 -80 -225 -108 -22 -12 -42 -21 -45
-21 -3 1 -36 -14 -75 -33 -38 -18 -75 -33 -82 -33 -7 0 -13 -4 -13 -10 0 -5
-6 -10 -12 -10 -19 0 -39 -15 -42 -31 -10 -50 -21 -67 -50 -81 -27 -13 -35
-14 -50 -2 -11 7 -23 11 -28 8 -14 -9 -40 65 -33 96 3 15 16 32 30 38 27 12
30 22 16 50 -5 9 -13 28 -19 42 -5 14 -20 48 -32 75 -12 28 -26 59 -31 70 -4
11 -22 52 -39 90 -17 39 -35 79 -40 90 -4 11 -15 36 -23 55 -9 19 -23 54 -32
78 -21 52 -31 53 -33 5z m225 -911 c7 -9 12 -32 10 -49 -2 -18 2 -34 8 -37 5
-2 2 -7 -9 -11 -11 -5 -27 -3 -39 4 -16 10 -22 10 -34 -2 -14 -13 -13 -18 3
-41 11 -15 31 -29 47 -32 20 -5 27 -13 27 -29 0 -15 11 -30 33 -44 28 -18 34
-18 47 -5 12 12 12 18 2 34 -22 36 -15 45 33 43 25 -1 49 -4 54 -7 5 -3 12
-26 15 -51 6 -40 4 -49 -26 -89 -29 -40 -47 -54 -83 -62 -5 -2 -25 -8 -43 -16
l-32 -12 -114 113 c-107 107 -113 115 -106 142 5 16 7 29 4 29 -2 0 3 15 13
33 9 17 16 35 15 38 -3 12 49 53 81 65 39 14 76 9 94 -14z m-157 -662 c36 -39
37 -42 8 -36 -55 10 -98 40 -91 63 7 21 52 6 83 -27z m-260 -60 c42 -23 119
-114 106 -127 -7 -7 -136 116 -136 129 0 11 8 10 30 -2z m1937 -1043 c14 0 44
-57 36 -70 -2 -4 -11 -2 -19 4 -9 7 -27 14 -41 15 -14 2 -30 9 -34 16 -5 7 -9
9 -9 4 0 -5 -9 -1 -20 9 -31 28 -24 34 28 28 26 -2 52 -5 59 -6z m378 -377 c4
-6 10 -8 15 -5 5 3 25 -1 45 -9 19 -8 37 -16 40 -16 17 -3 102 -45 128 -63 18
-12 58 -48 89 -79 49 -48 55 -58 43 -68 -9 -7 -15 -8 -15 -2 0 11 -33 24 -70
26 -14 1 -41 13 -59 27 -18 13 -38 23 -43 21 -5 -1 -19 3 -31 10 -12 7 -26 13
-32 14 -5 2 -20 5 -32 8 -28 6 -62 24 -84 45 -23 23 -51 80 -44 91 8 13 42 13
50 0z m-1045 -315 c39 -91 35 -105 -17 -61 -20 17 -30 35 -31 58 -1 19 -4 44
-7 57 -4 23 -4 23 17 5 11 -11 28 -37 38 -59z m1475 -160 c17 -12 45 -27 62
-34 49 -20 95 -67 89 -91 0 -3 9 -19 22 -37 12 -17 22 -35 22 -40 0 -4 9 -14
20 -21 12 -7 18 -17 15 -22 -11 -17 -60 22 -225 179 -55 52 -97 98 -94 102 6
10 48 -7 89 -36z m-1092 -202 c12 4 60 -39 63 -57 7 -39 91 -233 104 -241 5
-3 6 -13 3 -21 -3 -9 6 -27 23 -45 19 -20 25 -32 18 -39 -7 -7 -39 19 -100 82
-85 88 -91 98 -122 188 -19 52 -38 103 -43 113 -14 25 -2 39 22 26 11 -5 25
-9 32 -6z m549 -520 c71 -70 128 -132 128 -136 0 -12 -62 3 -81 19 -8 8 -20
14 -25 14 -5 0 -26 11 -46 25 -31 21 -72 87 -87 140 -2 6 -10 19 -17 30 -15
22 -18 35 -7 35 4 0 65 -57 135 -127z m2068 -1124 c0 -4 6 -7 13 -6 74 2 85
-6 92 -72 1 -14 10 -71 19 -126 10 -55 19 -113 21 -130 2 -16 8 -52 14 -80 11
-56 8 -65 -17 -61 -60 12 -138 23 -197 30 -22 3 -49 7 -60 9 -29 7 -94 17
-139 22 -48 6 -45 4 -50 46 -3 19 -5 34 -6 34 -1 0 -3 7 -5 16 -1 9 -6 30 -10
47 -5 26 -2 33 17 43 13 7 25 15 28 18 10 12 90 61 99 61 5 0 24 -20 42 -45
18 -25 36 -45 39 -45 14 0 27 25 24 45 -2 11 -5 35 -7 53 -2 18 -7 35 -11 39
-11 11 -7 88 6 101 12 12 88 14 88 1z m1946 -2150 c0 -8 2 -16 3 -19 21 -44
-16 -85 -49 -55 -10 9 -24 14 -29 10 -6 -3 -11 1 -11 9 0 10 8 13 27 10 15 -3
30 -7 35 -10 10 -6 10 -6 -1 33 -5 17 -6 34 -3 37 9 10 27 1 28 -15z"/>
<path d="M7894 1801 c-15 -16 -28 -40 -29 -53 -1 -13 -5 -37 -9 -55 -7 -30 -5
-33 26 -41 33 -8 35 -12 29 -69 -1 -14 -70 -19 -72 -5 0 4 -2 22 -4 40 -5 45
-9 48 -50 33 -19 -7 -39 -9 -45 -6 -9 5 -14 -7 -11 -27 0 -4 -8 -5 -19 -3 -13
2 -20 -2 -20 -11 0 -8 -4 -14 -9 -14 -13 0 -2 -62 15 -81 9 -10 24 -14 39 -11
19 3 27 -2 36 -22 19 -41 -8 -59 -73 -47 -5 0 -8 14 -8 30 0 54 -25 56 -112
10 -10 -5 -22 -9 -28 -9 -9 0 -50 -36 -50 -44 0 -5 53 -20 63 -18 4 1 7 -2 7
-6 0 -4 26 -16 58 -27 31 -10 67 -25 80 -33 12 -8 22 -10 22 -6 0 5 4 3 9 -4
4 -7 18 -14 29 -15 12 -1 22 -4 22 -8 0 -4 8 -9 18 -12 11 -2 38 16 74 51 53
52 58 54 73 38 16 -16 16 -18 1 -35 -16 -18 -16 -22 6 -65 18 -36 28 -46 49
-46 33 0 44 -32 20 -54 -21 -19 -57 -21 -67 -4 -4 7 -9 25 -11 42 -4 40 -7 41
-41 17 -17 -12 -37 -21 -45 -21 -9 0 -18 -4 -22 -10 -3 -5 -11 -7 -18 -4 -7 2
-23 -6 -35 -19 l-22 -24 27 -13 c16 -7 33 -14 39 -16 6 -1 27 -9 45 -17 86
-38 208 -87 216 -87 5 0 33 25 63 56 l53 55 21 -20 c16 -16 18 -23 8 -33 -7
-7 -12 -31 -12 -54 0 -38 3 -43 33 -54 17 -7 35 -12 38 -12 4 1 10 -10 14 -25
8 -32 -8 -44 -50 -41 -26 3 -30 8 -33 35 -4 41 -24 47 -74 22 -22 -11 -49 -22
-61 -24 -11 -3 -28 -12 -39 -22 -17 -15 -17 -18 -3 -26 8 -4 24 -10 34 -12 10
-2 27 -8 37 -14 11 -6 59 -24 109 -40 49 -17 95 -37 101 -45 6 -9 16 -16 22
-16 5 0 51 39 101 88 51 48 106 99 123 113 29 24 30 27 16 47 -8 12 -17 19
-20 17 -5 -5 -59 150 -65 188 -2 10 -9 33 -17 52 -15 36 -36 44 -54 22 -10
-12 -28 -85 -24 -99 1 -5 -2 -8 -7 -8 -5 0 -11 -9 -14 -21 -4 -16 1 -24 27
-34 32 -14 50 -44 40 -69 -3 -7 -21 -12 -42 -11 -35 1 -37 3 -46 43 -10 46
-21 51 -86 32 -29 -8 -38 -7 -52 8 -18 17 -16 20 39 76 51 52 56 59 40 71 -14
10 -44 98 -96 282 -3 13 -10 23 -14 23 -8 1 -37 -25 -37 -33 0 -2 -10 -26 -22
-53 -12 -27 -22 -52 -23 -56 0 -3 -3 -10 -7 -14 -5 -4 -8 -11 -8 -16 0 -4 3
-7 8 -7 4 1 22 -4 40 -11 48 -18 42 -64 -10 -74 -33 -6 -47 10 -42 47 1 15 -3
30 -9 33 -32 11 -78 10 -98 -4 -19 -13 -23 -13 -37 2 -15 15 -12 21 43 77 52
52 58 62 44 72 -12 9 -39 68 -44 97 0 3 -12 37 -25 75 -13 39 -25 72 -25 75
-4 22 -18 50 -25 50 -4 0 -21 -13 -36 -29z m7 -364 l11 -22 -21 22 c-22 23
-28 39 -11 28 5 -3 15 -16 21 -28z"/>
<path d="M9000 926 c0 -7 -6 -19 -13 -25 -8 -6 -19 -36 -26 -66 -7 -30 -19
-61 -26 -69 -8 -7 -17 -25 -21 -40 -3 -14 -10 -26 -15 -26 -5 0 -4 -9 3 -19 6
-10 18 -17 25 -14 7 3 26 0 42 -6 22 -10 27 -18 26 -42 -1 -16 -4 -31 -6 -32
-66 -53 -124 -29 -98 40 10 27 -25 67 -52 60 -11 -3 -19 -1 -19 4 0 5 -16 15
-35 23 -26 11 -37 23 -41 44 -8 41 -77 109 -116 114 -27 4 -38 -1 -74 -38 -23
-24 -47 -44 -53 -44 -16 0 -30 -34 -28 -65 3 -39 74 -105 113 -105 42 0 78
-63 76 -131 -1 -23 2 -26 29 -24 17 2 35 7 41 13 10 10 57 -3 59 -17 0 -3 2
-16 5 -29 5 -30 -36 -73 -66 -67 -25 5 -52 24 -46 34 2 3 0 16 -5 29 -6 17
-16 22 -43 22 -19 0 -41 -7 -50 -15 -20 -20 -63 -36 -80 -29 -8 3 -17 1 -21
-5 -3 -6 -15 -11 -25 -11 -10 0 -32 -11 -47 -24 -32 -28 -37 -25 87 -56 47
-11 92 -22 100 -24 8 -3 70 -18 138 -34 68 -17 126 -33 129 -36 4 -3 -2 -15
-12 -26 -20 -22 -13 -38 21 -44 10 -2 31 -7 46 -11 20 -5 33 -1 50 15 19 17
31 21 68 17 25 -3 52 -8 60 -11 15 -5 47 -13 103 -23 24 -5 27 -2 27 20 0 14
-4 28 -9 31 -5 3 -12 20 -15 38 -9 48 -14 70 -21 94 -5 15 2 31 24 55 32 34
34 54 11 115 -10 25 -12 26 -29 10 -9 -9 -21 -16 -25 -16 -8 0 -42 74 -50 110
-3 14 -12 48 -20 75 -8 28 -22 75 -31 105 -9 30 -17 60 -19 65 -2 6 -9 31 -16
58 -12 44 -30 64 -30 33z m-340 -144 l21 -22 -26 0 c-14 0 -25 4 -25 9 0 5 -9
11 -21 14 -26 7 -16 28 12 24 10 -2 28 -13 39 -25z m-79 -62 c6 0 8 -4 4 -9
-3 -5 -1 -12 5 -16 6 -4 8 -11 5 -16 -7 -10 -25 5 -42 36 -8 14 -8 25 0 40 11
19 12 19 15 -7 2 -16 8 -28 13 -28z"/>
</g>
</svg>
