<?xml version="1.0" standalone="no"?>
<!DOCTYPE svg PUBLIC "-//W3C//DTD SVG 20010904//EN"
 "http://www.w3.org/TR/2001/REC-SVG-20010904/DTD/svg10.dtd">
<svg version="1.0" xmlns="http://www.w3.org/2000/svg"
 width="80.000000pt" height="80.000000pt" viewBox="0 0 80.000000 80.000000"
 preserveAspectRatio="xMidYMid meet">
<metadata>
Created by potrace 1.14, written by Peter Selinger 2001-2017
</metadata>
<g transform="translate(0.000000,80.000000) scale(0.100000,-0.100000)"
fill="#000000" stroke="none">
<path d="M220 691 c5 -11 10 -31 10 -45 0 -21 -5 -26 -27 -26 -25 0 -25 -1
-10 -18 15 -17 15 -19 0 -35 -16 -16 -16 -17 3 -17 18 0 20 -5 16 -27 -5 -25
-4 -27 11 -14 15 12 17 11 17 -7 0 -12 -9 -26 -19 -32 -27 -14 -31 -13 -31 9
0 11 -4 22 -9 26 -13 7 -31 -27 -31 -57 l1 -23 13 24 c10 19 14 20 19 8 5 -13
-5 -23 -28 -27 -3 -1 -18 -5 -34 -10 -21 -6 -35 -4 -48 6 -24 18 -33 17 -33
-1 0 -8 7 -15 16 -15 18 0 75 -60 68 -72 -3 -4 -14 -8 -26 -8 -16 0 -19 -4
-14 -24 3 -14 2 -28 -4 -31 -17 -10 -12 -45 5 -39 8 4 15 14 15 23 0 14 2 14
10 1 6 -8 8 -36 4 -62 -6 -47 -6 -48 23 -48 24 -1 25 -2 11 -11 -10 -5 -18
-17 -18 -25 0 -8 -4 -12 -10 -9 -5 3 -10 2 -10 -3 0 -23 80 -44 177 -46 123
-1 223 5 223 15 0 4 15 7 33 7 41 0 157 23 157 31 0 3 -19 16 -42 29 -24 12
-86 47 -138 77 l-95 55 43 0 c31 0 42 -4 42 -15 0 -8 4 -15 10 -15 5 0 7 7 4
15 -4 9 -1 15 7 15 7 0 3 10 -11 25 -23 24 -23 25 -3 25 66 0 115 -30 82 -50
-15 -10 -29 -4 -29 11 0 6 5 7 10 4 6 -3 10 -1 10 5 0 17 -24 6 -28 -13 -2 -8
6 -20 16 -26 27 -14 74 22 70 53 -2 15 2 21 15 19 17 -1 16 2 -4 23 -16 18
-30 23 -46 19 -12 -3 -25 0 -29 7 -5 7 -2 9 8 5 16 -6 53 25 43 35 -3 3 1 11
9 17 8 7 12 19 9 27 -3 8 0 14 6 14 7 0 14 -7 17 -15 5 -12 10 -13 20 -4 10 8
18 6 35 -10 20 -19 21 -21 5 -21 -16 0 -16 -2 -6 -16 12 -13 15 -13 28 -1 21
22 1 51 -48 71 -45 18 -99 21 -148 7 -17 -5 -32 -6 -32 -2 0 13 56 62 63 54 4
-3 7 3 7 15 0 12 11 29 25 38 33 21 77 11 122 -29 l36 -32 -16 31 c-9 17 -23
36 -32 44 -14 12 -14 15 2 33 10 11 12 17 5 13 -7 -5 -29 -5 -49 -1 l-35 6 21
23 c25 26 28 44 5 25 -11 -9 -51 -14 -128 -14 -61 -1 -122 -6 -136 -10 -23 -8
-24 -7 -11 8 12 15 10 17 -14 17 -22 0 -25 -3 -16 -13 8 -11 4 -13 -22 -10
l-32 3 30 -15 c17 -8 24 -14 17 -15 -18 0 -4 -20 14 -20 8 0 12 5 9 10 -3 6
-4 10 -1 10 12 0 36 -61 36 -90 0 -35 -36 -78 -52 -62 -8 8 -6 19 6 36 15 24
15 27 -13 58 -15 18 -36 49 -47 68 -13 26 -19 31 -22 18 -5 -23 -7 -23 -46 7
-39 30 -50 32 -36 6z m296 -195 c-8 -28 -17 -36 -45 -41 -19 -4 -37 -2 -40 3
-3 5 -12 11 -20 13 -8 3 2 13 24 24 34 19 37 19 49 3 12 -16 14 -16 24 7 17
36 21 31 8 -9z m-144 -136 c6 0 3 -9 -7 -20 -14 -16 -20 -17 -27 -8 -13 22 -9
41 8 34 9 -3 20 -6 26 -6z m275 -26 c-3 -3 -12 -4 -19 -1 -8 3 -5 6 6 6 11 1
17 -2 13 -5z m-221 -41 c-11 -11 -17 4 -9 23 7 18 8 18 11 1 2 -10 1 -21 -2
-24z m-275 7 c22 -12 26 -32 4 -24 -8 4 -15 1 -15 -6 0 -6 -4 -8 -10 -5 -10 6
-14 45 -4 45 3 0 14 -5 25 -10z m49 -71 c0 -33 -23 -64 -40 -54 -14 9 -12 31
5 66 19 35 35 30 35 -12z m32 -59 c5 -36 -4 -46 -22 -25 -13 16 -5 69 9 61 5
-3 11 -20 13 -36z m110 -10 c9 -17 13 -30 8 -30 -10 0 -40 40 -40 52 0 17 16
6 32 -22z m-37 -19 c3 -5 2 -12 -3 -15 -5 -3 -9 1 -9 9 0 17 3 19 12 6z m124
-27 c4 3 13 1 21 -5 11 -6 12 -9 2 -9 -7 0 -11 -4 -8 -8 3 -5 -1 -9 -9 -9 -8
0 -15 4 -15 8 0 4 -2 13 -3 21 -2 7 -2 10 0 5 3 -4 8 -5 12 -3z"/>
</g>
</svg>
